<?xml version="1.0" standalone="no"?><!DOCTYPE svg PUBLIC "-//W3C//DTD SVG 1.1//EN" "http://www.w3.org/Graphics/SVG/1.1/DTD/svg11.dtd"><svg t="1646622241656" class="icon" viewBox="0 0 1024 1024" version="1.1" xmlns="http://www.w3.org/2000/svg" p-id="3302" xmlns:xlink="http://www.w3.org/1999/xlink" width="200" height="200"><defs><style type="text/css"></style></defs><path d="M247.466667 665.6h529.066666a170.666667 170.666667 0 0 1 170.666667 170.666667v153.6H76.8V836.266667a170.666667 170.666667 0 0 1 170.666667-170.666667z" fill="#FFFFFF" p-id="3303"></path><path d="M964.266667 989.866667H59.733333a25.6 25.6 0 0 1 0-51.2h17.066667V836.266667a170.5216 170.5216 0 0 1 102.4-156.330667V580.266667a170.496 170.496 0 0 1 128-165.034667V341.333333a119.466667 119.466667 0 0 1 119.466667-119.466666h59.733333v-59.733334a25.6 25.6 0 0 1 51.2 0v59.733334h59.733333a119.466667 119.466667 0 0 1 119.466667 119.466666v73.898667A170.496 170.496 0 0 1 844.8 580.266667v99.669333A170.5216 170.5216 0 0 1 947.2 836.266667v102.4h17.066667a25.6 25.6 0 0 1 0 51.2z m-68.266667-153.6a119.466667 119.466667 0 0 0-119.466667-119.466667H247.466667a119.466667 119.466667 0 0 0-119.466667 119.466667v102.4h768V836.266667zM512 85.333333a25.6 25.6 0 1 1 25.6-25.6 25.6 25.6 0 0 1-25.6 25.6z" fill="#FCD9ED" p-id="3304"></path><path d="M964.266667 989.866667H59.733333a25.6 25.6 0 0 1 0-51.2h17.066667V836.266667a170.5216 170.5216 0 0 1 102.4-156.330667V580.266667a170.496 170.496 0 0 1 128-165.034667V341.333333a119.466667 119.466667 0 0 1 119.466667-119.466666h59.733333v-59.733334a25.6 25.6 0 0 1 51.2 0v59.733334h59.733333a119.466667 119.466667 0 0 1 119.466667 119.466666v73.898667A170.496 170.496 0 0 1 844.8 580.266667v99.669333A170.5216 170.5216 0 0 1 947.2 836.266667v102.4h17.066667a25.6 25.6 0 0 1 0 51.2zM665.6 341.333333a68.266667 68.266667 0 0 0-68.266667-68.266666H426.666667a68.266667 68.266667 0 0 0-68.266667 68.266666v68.266667h307.2v-68.266667z m128 238.933334a119.466667 119.466667 0 0 0-119.466667-119.466667H349.866667a119.466667 119.466667 0 0 0-119.466667 119.466667v85.333333h563.2V580.266667z m102.4 256a119.466667 119.466667 0 0 0-119.466667-119.466667H247.466667a119.466667 119.466667 0 0 0-119.466667 119.466667v102.4h768V836.266667zM512 85.333333a25.6 25.6 0 1 1 25.6-25.6 25.6 25.6 0 0 1-25.6 25.6z" fill="#FF9DCA" p-id="3305"></path></svg>